<?xml version="1.0" encoding="utf-8"?>
<!-- Generator: Adobe Illustrator 19.1.0, SVG Export Plug-In . SVG Version: 6.00 Build 0)  -->
<svg version="1.1" id="Layer_1" xmlns="http://www.w3.org/2000/svg" xmlns:xlink="http://www.w3.org/1999/xlink" x="0px" y="0px"
	 viewBox="-241 333 128 128" style="enable-background:new -241 333 128 128;" xml:space="preserve">
<style type="text/css">
	.st0{fill:#A4AFBB;}
</style>
<g id="mail">
	<path class="st0" d="M-172.6,419.6c-0.5,0.3-1,0.5-1.5,0.7c-0.4,0.2-0.9,0.4-1.3,0.5c-0.5,0.1-1,0.1-1.6,0.1c-0.5,0-1,0-1.5-0.1
		c-0.5-0.1-0.9-0.3-1.4-0.5c-0.5-0.2-1-0.4-1.5-0.7c-0.1-0.1-0.3-0.1-0.5-0.2l-59.1-45.3V437c0,4.4,3.6,8,8,8h112c4.4,0,8-3.6,8-8
		v-62.1l-59.2,44.5C-172.3,419.5-172.5,419.5-172.6,419.6z"/>
	<path class="st0" d="M-113,357c0-4.4-3.6-8-8-8h-112c-4.4,0-8,3.6-8,8l64,49.3L-113,357z"/>
</g>
</svg>
