<?xml version="1.0" encoding="utf-8"?>
<!-- Generator: Adobe Illustrator 18.1.1, SVG Export Plug-In . SVG Version: 6.00 Build 0)  -->
<svg version="1.1" id="Layer_1" xmlns="http://www.w3.org/2000/svg" xmlns:xlink="http://www.w3.org/1999/xlink" x="0px" y="0px"
	 viewBox="0 0 128 128" enable-background="new 0 0 128 128" xml:space="preserve">
<g id="linkedin">
	<path fill-rule="evenodd" clip-rule="evenodd" fill="#FFFFFF" d="M73.2,56.3v-0.2c0,0.1-0.1,0.1-0.1,0.2H73.2z"/>
	<path fill-rule="evenodd" clip-rule="evenodd" fill="#FFFFFF" d="M120,0h-4.2H12.2H8C3.6,0,0,3.6,0,8v4.2v103.6v4.2
		c0,4.4,3.6,8,8,8h4.2h103.6h4.2c4.4,0,8-3.6,8-8v-4.2V12.2V8C128,3.6,124.4,0,120,0z M109.7,103.8h-18V75c0-7.2-2.1-12.2-8.6-12.2
		c-5,0-8,3.3-9.3,6.5c-0.5,1.1-0.6,2.8-0.6,4.4v30H54.6c0,0,0.2-50.2,0-55.3h18.6v7.6c2.4-3.7,6.7-8.9,16.3-8.9
		c11.9,0,20.2,9.2,20.2,25.7V103.8z M32.6,24.4c5.5,0,9,4,9.1,9.2c0,5.1-3.5,9.2-9.2,9.2h-0.1c-5.4,0-9-4.1-9-9.2
		C23.4,28.4,27,24.4,32.6,24.4z M42.7,48.7v55.1H24.4V48.7H42.7z"/>
</g>
</svg>
