<?xml version="1.0" encoding="utf-8"?>
<!-- Generator: Adobe Illustrator 18.1.1, SVG Export Plug-In . SVG Version: 6.00 Build 0)  -->
<svg version="1.1" id="Layer_1" xmlns="http://www.w3.org/2000/svg" xmlns:xlink="http://www.w3.org/1999/xlink" x="0px" y="0px"
	 viewBox="0 0 128 128" enable-background="new 0 0 128 128" xml:space="preserve">
<g id="pinterest">
	<path fill="#FFFFFF" d="M64,0C28.7,0,0,28.7,0,64c0,26.2,15.8,48.7,38.3,58.6c-0.2-4.5,0-9.8,1.1-14.7c1.2-5.2,8.2-34.9,8.2-34.9
		s-2-4.1-2-10.1c0-9.5,5.5-16.6,12.3-16.6c5.8,0,8.6,4.4,8.6,9.6c0,5.8-3.7,14.6-5.7,22.7C59.3,85.5,64.3,91,71,91
		c12.1,0,20.3-15.6,20.3-34c0-14-9.5-24.5-26.6-24.5c-19.4,0-31.5,14.5-31.5,30.6c0,5.6,1.6,9.5,4.2,12.6c1.2,1.4,1.3,2,0.9,3.6
		c-0.3,1.2-1,4-1.3,5.1c-0.4,1.6-1.7,2.2-3.2,1.6c-8.9-3.6-13.1-13.4-13.1-24.4c0-18.2,15.3-40,45.7-40c24.4,0,40.5,17.7,40.5,36.7
		c0,25.1-14,43.9-34.5,43.9c-6.9,0-13.4-3.7-15.6-8c0,0-3.7,14.7-4.5,17.6c-1.4,4.9-4,9.9-6.4,13.7c5.8,1.7,11.8,2.6,18.1,2.6
		c35.3,0,64-28.7,64-64C128,28.7,99.3,0,64,0z"/>
</g>
</svg>
