<?xml version="1.0" encoding="utf-8"?>
<!-- Generator: Adobe Illustrator 18.1.1, SVG Export Plug-In . SVG Version: 6.00 Build 0)  -->
<svg version="1.1" id="Layer_1" xmlns="http://www.w3.org/2000/svg" xmlns:xlink="http://www.w3.org/1999/xlink" x="0px" y="0px"
	 viewBox="0 0 128 128" enable-background="new 0 0 128 128" xml:space="preserve">
<g id="mail">
	<path fill-rule="evenodd" clip-rule="evenodd" fill="#FFFFFF" d="M68.4,86.6c-0.5,0.3-1,0.5-1.5,0.7c-0.4,0.2-0.9,0.4-1.3,0.5
		c-0.5,0.1-1,0.1-1.6,0.1c-0.5,0-1,0-1.5-0.1c-0.5-0.1-0.9-0.3-1.4-0.5c-0.5-0.2-1-0.4-1.5-0.7c-0.1-0.1-0.3-0.1-0.5-0.2L0,41.1V104
		c0,4.4,3.6,8,8,8h112c4.4,0,8-3.6,8-8V41.9L68.8,86.4C68.7,86.5,68.5,86.5,68.4,86.6z"/>
	<path fill-rule="evenodd" clip-rule="evenodd" fill="#FFFFFF" d="M128,24c0-4.4-3.6-8-8-8H8c-4.4,0-8,3.6-8,8l64,49.3L128,24z"/>
</g>
</svg>
