<?xml version="1.0" encoding="utf-8"?>
<!-- Generator: Adobe Illustrator 18.1.1, SVG Export Plug-In . SVG Version: 6.00 Build 0)  -->
<svg version="1.1" id="Layer_1" xmlns="http://www.w3.org/2000/svg" xmlns:xlink="http://www.w3.org/1999/xlink" x="0px" y="0px"
	 viewBox="0 0 128 128" enable-background="new 0 0 128 128" xml:space="preserve">
<path id="facebook" fill="#FFFFFF" d="M120.7,0H7.3C3.3,0,0,3.3,0,7.3v113.4c0,4,3.3,7.3,7.3,7.3h113.4c4,0,7.3-3.3,7.3-7.3V7.3
	C128,3.3,124.7,0,120.7,0z M108.6,71.8H91.1v47.1H73.1V71.8H60.7V54.9h12.4c0,0,0-6.9,0-14.5c0-11.4,7.3-21.8,24.3-21.8
	c6.9,0,11.9,0.7,11.9,0.7L109,35c0,0-5.2,0-10.8,0c-6.1,0-7.1,2.8-7.1,7.5c0,0.6,0,0.8,0,0.8c0,1.3,0,4.5,0,11.6h18.4L108.6,71.8z"
	/>
</svg>
