<?xml version="1.0" encoding="utf-8"?>
<!-- Generator: Adobe Illustrator 19.1.0, SVG Export Plug-In . SVG Version: 6.00 Build 0)  -->
<svg version="1.1" id="Layer_1" xmlns="http://www.w3.org/2000/svg" xmlns:xlink="http://www.w3.org/1999/xlink" x="0px" y="0px"
	 viewBox="-241 333 128 128" style="enable-background:new -241 333 128 128;" xml:space="preserve">
<style type="text/css">
	.st0{fill:#A4AFBB;}
</style>
<path id="facebook" class="st0" d="M-120.3,333h-113.4c-4,0-7.3,3.3-7.3,7.3v113.4c0,4,3.3,7.3,7.3,7.3h113.4c4,0,7.3-3.3,7.3-7.3
	V340.3C-113,336.3-116.3,333-120.3,333z M-132.4,404.8h-17.5v47.1h-18v-47.1h-12.4v-16.9h12.4c0,0,0-6.9,0-14.5
	c0-11.4,7.3-21.8,24.3-21.8c6.9,0,11.9,0.7,11.9,0.7L-132,368c0,0-5.2,0-10.8,0c-6.1,0-7.1,2.8-7.1,7.5c0,0.6,0,0.8,0,0.8
	c0,1.3,0,4.5,0,11.6h18.4L-132.4,404.8z"/>
</svg>
