<?xml version="1.0" encoding="utf-8"?>
<!-- Generator: Adobe Illustrator 18.1.1, SVG Export Plug-In . SVG Version: 6.00 Build 0)  -->
<svg version="1.1" id="Layer_1" xmlns="http://www.w3.org/2000/svg" xmlns:xlink="http://www.w3.org/1999/xlink" x="0px" y="0px"
	 viewBox="0 0 128 128" enable-background="new 0 0 128 128" xml:space="preserve">
<path id="instagram" fill-rule="evenodd" clip-rule="evenodd" fill="#FFFFFF" d="M115.7,0H12.3C5.5,0,0,5.5,0,12.3v103.4
	c0,6.8,5.5,12.3,12.3,12.3h103.4c6.8,0,12.3-5.5,12.3-12.3V12.3C128,5.5,122.5,0,115.7,0z M64,39.4c13.6,0,24.6,11,24.6,24.6
	c0,13.6-11,24.6-24.6,24.6c-13.6,0-24.6-11-24.6-24.6C39.4,50.4,50.4,39.4,64,39.4z M113.2,108.3c0,2.7-2.2,4.9-4.9,4.9H19.7
	c-2.7,0-4.9-2.2-4.9-4.9V54.2h11.1c-0.8,3.1-1.3,6.4-1.3,9.8c0,21.8,17.6,39.4,39.4,39.4c21.8,0,39.4-17.6,39.4-39.4
	c0-3.4-0.5-6.7-1.3-9.8h11.1V108.3z M113.2,34.5c0,2.7-2.2,4.9-4.9,4.9H93.5c-2.7,0-4.9-2.2-4.9-4.9V19.7c0-2.7,2.2-4.9,4.9-4.9
	h14.8c2.7,0,4.9,2.2,4.9,4.9V34.5z"/>
</svg>
