<?xml version="1.0" encoding="utf-8"?>
<!-- Generator: Adobe Illustrator 18.1.1, SVG Export Plug-In . SVG Version: 6.00 Build 0)  -->
<svg version="1.1" id="Layer_1" xmlns="http://www.w3.org/2000/svg" xmlns:xlink="http://www.w3.org/1999/xlink" x="0px" y="0px"
	 viewBox="0 0 128 128" enable-background="new 0 0 128 128" xml:space="preserve">
<path id="twitter" fill="#FFFFFF" d="M128,24.3c-4.7,2.1-9.8,3.5-15.1,4.1c5.4-3.2,9.6-8.4,11.5-14.5c-5.1,3-10.7,5.2-16.7,6.4
	C103,15.2,96.2,12,88.6,12c-14.5,0-26.3,11.8-26.3,26.3c0,2,0.2,4.1,0.7,6C41.2,43.1,21.9,32.7,8.9,16.8C6.7,20.7,5.4,25.2,5.4,30
	c0,9.1,4.6,17.1,11.7,21.9c-4.3-0.1-8.4-1.3-11.9-3.3c0,0.1,0,0.2,0,0.3c0,12.7,9.1,23.3,21.1,25.7c-2.2,0.6-4.5,0.9-6.9,0.9
	c-1.7,0-3.3-0.2-4.9-0.5c3.3,10.4,13,18,24.5,18.2c-9,7-20.3,11.2-32.6,11.2c-2.1,0-4.2-0.1-6.3-0.4c11.6,7.5,25.4,11.8,40.3,11.8
	c48.3,0,74.7-40,74.7-74.7c0-1.1,0-2.3-0.1-3.4C120,34.2,124.5,29.6,128,24.3z"/>
</svg>
