<?xml version="1.0" encoding="utf-8"?>
<!-- Generator: Adobe Illustrator 19.1.0, SVG Export Plug-In . SVG Version: 6.00 Build 0)  -->
<svg version="1.1" id="Layer_1" xmlns="http://www.w3.org/2000/svg" xmlns:xlink="http://www.w3.org/1999/xlink" x="0px" y="0px"
	 viewBox="-241 333 128 128" style="enable-background:new -241 333 128 128;" xml:space="preserve">
<style type="text/css">
	.st0{fill:#A4AFBB;}
</style>
<path id="twitter" class="st0" d="M-113,357.3c-4.7,2.1-9.8,3.5-15.1,4.1c5.4-3.2,9.6-8.4,11.5-14.5c-5.1,3-10.7,5.2-16.7,6.4
	c-4.7-5.1-11.5-8.3-19.1-8.3c-14.5,0-26.3,11.8-26.3,26.3c0,2,0.2,4.1,0.7,6c-21.8-1.2-41.1-11.6-54.1-27.5
	c-2.2,3.9-3.5,8.4-3.5,13.2c0,9.1,4.6,17.1,11.7,21.9c-4.3-0.1-8.4-1.3-11.9-3.3c0,0.1,0,0.2,0,0.3c0,12.7,9.1,23.3,21.1,25.7
	c-2.2,0.6-4.5,0.9-6.9,0.9c-1.7,0-3.3-0.2-4.9-0.5c3.3,10.4,13,18,24.5,18.2c-9,7-20.3,11.2-32.6,11.2c-2.1,0-4.2-0.1-6.3-0.4
	c11.6,7.5,25.4,11.8,40.3,11.8c48.3,0,74.7-40,74.7-74.7c0-1.1,0-2.3-0.1-3.4C-121,367.2-116.5,362.6-113,357.3z"/>
</svg>
