<?xml version="1.0" encoding="utf-8"?>
<!-- Generator: Adobe Illustrator 18.1.1, SVG Export Plug-In . SVG Version: 6.00 Build 0)  -->
<svg version="1.1" id="Layer_1" xmlns="http://www.w3.org/2000/svg" xmlns:xlink="http://www.w3.org/1999/xlink" x="0px" y="0px"
	 viewBox="0 0 128 128" enable-background="new 0 0 128 128" xml:space="preserve">
<path id="youtube" fill="#FFFFFF" d="M127.1,39.5c0-10.3-8.3-18.7-18.5-18.7C94.1,20.2,79.2,20,64,20c-15.2,0-30.1,0.2-44.7,0.9
	c-10.2,0-18.5,8.4-18.5,18.7C0.2,47.7,0,55.8,0,64c0,8.1,0.2,16.3,0.9,24.5c0,10.3,8.3,18.7,18.5,18.7c14.6,0.6,29.5,0.9,44.7,0.9
	c15.2,0,30.1-0.2,44.7-0.9c10.2,0,18.5-8.4,18.5-18.7c0.6-8.2,0.9-16.3,0.9-24.5C128,55.8,127.8,47.7,127.1,39.5z M48,92V36l40,28
	L48,92z"/>
</svg>
