<?xml version="1.0" encoding="utf-8"?>
<svg version="1.1" id="Layer_1" xmlns="http://www.w3.org/2000/svg" xmlns:xlink="http://www.w3.org/1999/xlink" x="0px" y="0px"
	width="1250" height="139.3" viewBox="0 0 1250 139.3" enable-background="new 0 0 1250 139.3" xml:space="preserve">
<g>
	<path fill="#0D63AA" d="M625.3,20C273.8,48.3,13.4,6.6-26.1,0v6.4C-20.8,7.3-4.1,9.7-2.3,10c94.8,13.8,328.9,40,618.2,15.6
		c353.8-29.8,625.2-3.3,660,0.4v-6.5C1239.4,15.9,972.6-8,625.3,20z"/>
	<path fill="#147FD7" d="M615.9,22.5C326.6,46.9,92.5,20.6-2.3,6.9c79.9,16.5,322.4,57.5,626.9,22.8c349.8-39.9,617.9-5.2,651.4-0.5
		v-6.2C1241.1,19.2,969.8-7.4,615.9,22.5z"/>
	<path fill="#FFFFFF" d="M624.5,29.6C320.1,64.4,77.5,23.3-2.3,6.9C-4,6.6-5.8,6.3-7.5,6.1C-14.6,5-20.8,4-26.1,3.3v2.8v142.7h1302
		V29.1C1242.4,24.4,974.4-10.3,624.5,29.6z"/>
</g>
</svg>
